<?xml version="1.0" encoding="UTF-8"?>
<svg version="1.1" xmlns="http://www.w3.org/2000/svg" width="633" height="394">
<path d="M0 0 C2.00499355 1.5910895 2.00499355 1.5910895 4.6875 3.0390625 C5.43 3.51214844 6.1725 3.98523438 6.9375 4.47265625 C6.9375 5.13265625 6.9375 5.79265625 6.9375 6.47265625 C7.7728125 6.56546875 7.7728125 6.56546875 8.625 6.66015625 C11.91870783 7.81740495 13.53254754 9.95584554 15.9375 12.47265625 C17.7989896 14.05492241 19.68185953 15.60509177 21.58203125 17.140625 C22.02933594 17.58019531 22.47664063 18.01976562 22.9375 18.47265625 C22.9375 19.13265625 22.9375 19.79265625 22.9375 20.47265625 C23.47890625 20.67117187 24.0203125 20.8696875 24.578125 21.07421875 C27.93962867 23.06663317 30.20394608 25.8897865 32.6875 28.84765625 C33.21754639 29.47397949 33.74759277 30.10030273 34.29370117 30.74560547 C38.97830878 36.36656582 43.09486523 42.24407179 46.9375 48.47265625 C47.51886719 49.39046875 48.10023438 50.30828125 48.69921875 51.25390625 C60.58560427 70.69949875 68.34219686 92.68832671 69.9375 115.47265625 C70.00308105 116.32021484 70.06866211 117.16777344 70.13623047 118.04101562 C71.19512874 132.39327713 70.67926132 146.20006084 68.9375 160.47265625 C68.82664062 161.56320313 68.71578125 162.65375 68.6015625 163.77734375 C65.16969276 190.69845526 50.48136992 217.26040052 32.9375 237.47265625 C32.24140625 238.29121094 31.5453125 239.10976563 30.828125 239.953125 C26.55124638 244.86216999 22.01106253 249.41477953 17.25 253.84765625 C16.71536133 254.34773193 16.18072266 254.84780762 15.62988281 255.36303711 C12.26431325 258.44397981 8.79430801 261.00999784 4.9375 263.47265625 C4.00550781 264.10945313 3.07351563 264.74625 2.11328125 265.40234375 C-7.81383696 272.14682515 -18.01507891 277.78500539 -29.0625 282.47265625 C-30.15175781 282.95734375 -31.24101562 283.44203125 -32.36328125 283.94140625 C-66.91763287 298.63158756 -110.67081021 297.70456834 -145.55053711 284.50341797 C-149.23965949 282.98961928 -152.78089286 281.25784184 -156.3125 279.41015625 C-160.09461636 277.45581463 -163.84779476 275.5285655 -167.78125 273.89453125 C-172.29275175 271.93954716 -176.05612802 269.29503651 -180.0625 266.47265625 C-181.36574219 265.57353516 -181.36574219 265.57353516 -182.6953125 264.65625 C-189.58216245 259.80013785 -196.21294507 254.559814 -202.0625 248.47265625 C-202.0625 247.81265625 -202.0625 247.15265625 -202.0625 246.47265625 C-202.88041016 246.16521484 -202.88041016 246.16521484 -203.71484375 245.8515625 C-206.98232769 243.9323914 -209.20340263 241.26800305 -211.625 238.41015625 C-212.14803711 237.79454834 -212.67107422 237.17894043 -213.20996094 236.54467773 C-225.97052264 221.16631868 -235.88583129 203.44235745 -242.0625 184.47265625 C-242.49433594 183.34601563 -242.92617187 182.219375 -243.37109375 181.05859375 C-256.45684435 144.79126124 -251.36614462 100.66959739 -235.8269043 66.05566406 C-230.50124332 54.77295688 -223.66791557 44.34178223 -216.0625 34.47265625 C-215.36769531 33.54710937 -214.67289063 32.6215625 -213.95703125 31.66796875 C-213.33183594 30.94351563 -212.70664063 30.2190625 -212.0625 29.47265625 C-211.4025 29.47265625 -210.7425 29.47265625 -210.0625 29.47265625 C-209.815 28.73015625 -209.5675 27.98765625 -209.3125 27.22265625 C-207.95784961 24.24242538 -206.5523459 22.57346373 -204.0625 20.47265625 C-203.4025 20.47265625 -202.7425 20.47265625 -202.0625 20.47265625 C-201.82015625 19.89773437 -201.5778125 19.3228125 -201.328125 18.73046875 C-195.39905894 8.15330769 -176.82125797 -4.02962192 -165.6953125 -8.47265625 C-162.8518407 -9.61173249 -160.21144156 -10.9783758 -157.5 -12.40234375 C-151.50477044 -15.42199982 -145.48701503 -17.61384264 -139.0625 -19.52734375 C-138.25039063 -19.78128906 -137.43828125 -20.03523438 -136.6015625 -20.296875 C-133.77274702 -21.13124171 -130.92964606 -21.83527401 -128.0625 -22.52734375 C-127.41394043 -22.6979834 -126.76538086 -22.86862305 -126.09716797 -23.04443359 C-85.35099395 -33.53673433 -33.80649049 -26.05916975 0 0 Z " fill="#020202" transform="translate(406.0625,63.52734375)"/>
<path d="M0 0 C7.38834919 -0.30278215 14.77533914 -0.53295004 22.16866112 -0.67355824 C25.60313069 -0.74109382 29.03332473 -0.83243784 32.46533203 -0.98071289 C56.52942583 -1.9938782 56.52942583 -1.9938782 61.9753418 2.80883789 C64.6397458 5.88748937 66.3317285 9.2919784 68 13 C68.98025616 14.38382293 69.99093764 15.74810958 71.0625 17.0625 C71.52011719 17.67609375 71.97773438 18.2896875 72.44921875 18.921875 C73.65626101 20.53937244 74.86818066 22.1532306 76.08203125 23.765625 C80.49257052 29.62630751 84.84788539 35.52198302 89.15234375 41.4609375 C92.35857349 45.86696146 95.59571293 50.24464116 99 54.5 C100.77137418 56.71421772 102.52232515 58.93910072 104.25 61.1875 C105.03117187 62.19876953 105.03117187 62.19876953 105.828125 63.23046875 C107 65 107 65 107 67 C110.88522753 64.17437998 113.86868491 60.97900975 116.96875 57.35546875 C119.3328421 54.61403118 121.75422007 51.93018628 124.1875 49.25 C125.00605469 48.34765625 125.82460938 47.4453125 126.66796875 46.515625 C129.46399133 43.49948004 132.36542 40.61742919 135.3125 37.75 C138.18463834 34.81106775 140.81901726 31.72929415 143.44921875 28.57421875 C143.96097656 28.05472656 144.47273437 27.53523438 145 27 C145.66 27 146.32 27 147 27 C147.3403125 25.88625 147.3403125 25.88625 147.6875 24.75 C149.28578576 21.40121079 151.07409441 20.27570435 154 18 C155.10819413 16.81442574 156.18920118 15.60316384 157.25 14.375 C157.85585938 13.69179687 158.46171875 13.00859375 159.0859375 12.3046875 C161.07291628 9.98958064 161.07291628 9.98958064 162.8515625 7.2578125 C167.84001823 0.45887476 167.84001823 0.45887476 172.06396484 -0.43847656 C177.07913639 -0.86379902 182.00389621 -0.51624494 187 0 C185.41987986 3.49883745 184.39126684 4.30436658 181 6 C180.31513275 7.32407669 179.65129797 8.65909241 179 10 C177.34771275 11.68092308 175.67856247 13.34531466 174 15 C172.32292604 16.82381793 170.65633508 18.65732722 169 20.5 C165.75867214 24.10597724 162.43073706 27.57474335 159 31 C157.6130502 32.50994347 156.23808227 34.030976 154.875 35.5625 C152.30496981 38.43817867 149.72723081 41.30485943 147.11328125 44.140625 C146.62682129 44.66841553 146.14036133 45.19620605 145.63916016 45.73999023 C144.25402719 47.24043447 142.86728817 48.73939561 141.48046875 50.23828125 C138.97611822 52.95674417 138.97611822 52.95674417 136.80078125 55.85546875 C136.20652344 56.56316406 135.61226562 57.27085937 135 58 C134.34 58 133.68 58 133 58 C132.72671875 58.59329102 132.4534375 59.18658203 132.171875 59.79785156 C130.32658027 63.2654679 127.66386048 65.89137614 125 68.75 C124.4534375 69.35199219 123.906875 69.95398438 123.34375 70.57421875 C121.93997089 72.09153882 120.47416237 73.5509654 119 75 C118.34 75 117.68 75 117 75 C118.07187401 80.25218265 119.67636732 83.18684831 123.28515625 87.11328125 C125.17258008 89.1898774 126.90075245 91.34878863 128.625 93.5625 C129.17414063 94.26503906 129.72328125 94.96757812 130.2890625 95.69140625 C131.51603479 97.34697844 132.68737448 99.04433719 133.8203125 100.765625 C136.47335706 104.70240081 139.34580073 108.43425772 142.25 112.1875 C146.69033637 117.95751629 151.05770525 123.76245198 155.31640625 129.66796875 C159.42991287 135.36579579 163.71182215 140.93312806 168 146.5 C178.07708125 159.58485791 178.07708125 159.58485791 180.875 163.875 C182.78734039 166.68726528 184.80335731 169.29275868 186.9375 171.9375 C196 183.1682243 196 183.1682243 196 186 C188.44667197 186.27901086 180.89388198 186.49172973 173.33656311 186.62174606 C169.82619298 186.68418265 166.31936538 186.76870109 162.81103516 186.90527344 C158.76952914 187.06160198 154.73169237 187.11898226 150.6875 187.171875 C149.4382373 187.23381042 148.18897461 187.29574585 146.90185547 187.35955811 C143.23272051 187.36237493 140.46373997 187.22612185 137 186 C133.52157487 182.37935753 131.3197864 178.42032619 129 174 C127.73875558 172.25446099 127.73875558 172.25446099 126.45703125 170.85546875 C122.99262942 166.82927203 119.86280893 162.56831539 116.6875 158.3125 C116.02613037 157.4270752 115.36476074 156.54165039 114.68334961 155.62939453 C113.37801034 153.87985839 112.07369626 152.12955679 110.77050781 150.37841797 C109.69093862 148.92817485 108.60992906 147.47900067 107.52636719 146.03173828 C106.36695652 144.4830654 105.21431472 142.92933062 104.0625 141.375 C103.15177734 140.14910156 103.15177734 140.14910156 102.22265625 138.8984375 C101 137 101 137 101 135 C100.34 135 99.68 135 99 135 C97.29309526 132.80243449 95.69568564 130.60441885 94.125 128.3125 C93.25396832 127.05764575 92.38159217 125.80372357 91.5078125 124.55078125 C91.08661133 123.94572754 90.66541016 123.34067383 90.23144531 122.71728516 C88.57517116 120.40756423 86.77995168 118.21496229 85 116 C84.67 115.34 84.34 114.68 84 114 C81.92230911 113.7653353 81.92230911 113.7653353 80.66015625 115.328125 C80.13292969 115.96234375 79.60570312 116.5965625 79.0625 117.25 C75.4988634 121.4460147 71.80406697 125.50648229 68.06884766 129.54882812 C64.72688464 133.17691415 61.49292288 136.87892896 58.33984375 140.671875 C57 142 57 142 55 142 C54.7834375 142.53109375 54.566875 143.0621875 54.34375 143.609375 C52.50159748 146.88669285 50.03862231 149.50802551 47.5 152.25 C47.00113281 152.80429687 46.50226563 153.35859375 45.98828125 153.9296875 C44.7031646 155.3285008 43.35566232 156.66944254 42 158 C41.34 158 40.68 158 40 158 C39.77183594 158.54527344 39.54367187 159.09054687 39.30859375 159.65234375 C37.6077918 162.70363323 35.43509844 165.001766 33.0625 167.5625 C31.74958984 168.98755859 31.74958984 168.98755859 30.41015625 170.44140625 C27.83858301 173.1713584 25.21853878 175.79238816 22.5 178.375 C19.90036072 180.78567876 19.90036072 180.78567876 18.91796875 183.64453125 C17 186 17 186 15.07470703 186.40234375 C12.63648853 186.49324111 10.2492477 186.43499698 7.8125 186.3125 C6.96751953 186.28994141 6.12253906 186.26738281 5.25195312 186.24414062 C3.16721202 186.18524963 1.08338196 186.09556798 -1 186 C2.21515193 178.55528993 9.27482407 172.58204653 15 167 C21.48737107 160.63596298 27.75809768 154.20571111 33.3125 147 C34.1478125 146.01 34.1478125 146.01 35 145 C35.66 145 36.32 145 37 145 C37.37705078 144.12988281 37.37705078 144.12988281 37.76171875 143.2421875 C39.1544465 140.72033978 40.72936452 139.10855921 42.8125 137.125 C45.31477889 134.69538256 47.68401393 132.27670662 49.875 129.5625 C52 127 52 127 54 126 C54.433125 125.236875 54.86625 124.47375 55.3125 123.6875 C57.20075441 120.68028001 59.22016386 119.18415696 62 117 C62.91766073 115.93509284 63.81342972 114.85096758 64.6875 113.75 C65.8321875 112.38875 65.8321875 112.38875 67 111 C67.66 111 68.32 111 69 111 C69.37125 109.824375 69.37125 109.824375 69.75 108.625 C71.15389099 105.67682892 72.00675737 105.0975223 75 104 C71.40587471 97.12428205 66.71783654 91.13484806 62 85 C61.18094163 83.93102632 60.36193118 82.86201593 59.54296875 81.79296875 C56.18160266 77.41204138 52.80683162 73.04152889 49.42578125 68.67578125 C44.16182088 61.86968029 39.02643418 54.9839907 34 48 C28.41308987 40.27199857 22.73723614 32.61701316 17 25 C13.99174687 21.00610761 10.99077144 17.00700187 8 13 C6.83984375 11.45119141 6.83984375 11.45119141 5.65625 9.87109375 C4.55796875 8.38802734 4.55796875 8.38802734 3.4375 6.875 C2.44556641 5.54082031 2.44556641 5.54082031 1.43359375 4.1796875 C0 2 0 2 0 0 Z " fill="#F4F4F4" transform="translate(219,104)"/>
<path d="M0 0 C4.35301263 -0.26260827 8.70398357 -0.42161414 13.0625 -0.5625 C14.29162109 -0.63791016 15.52074219 -0.71332031 16.78710938 -0.79101562 C25.73428001 -1.00806289 25.73428001 -1.00806289 29.25952148 1.79956055 C31.07094077 4.11233948 32.54719492 6.44915356 34 9 C34.84935672 10.20653808 35.71145091 11.40427764 36.58984375 12.58984375 C37.37362148 13.70486864 38.15617067 14.82075808 38.9375 15.9375 C41.84807488 20.05823803 44.80990573 24.08810662 48 28 C51.66085276 32.48916692 55.00961138 37.15748361 58.35058594 41.88525391 C61.26926099 46.00593551 64.28898052 50.02391912 67.41796875 53.98828125 C70.00635757 57.27968926 72.49749365 60.64314336 75 64 C75.93707879 65.2503158 76.87458778 66.50030927 77.8125 67.75 C78.30621094 68.40871094 78.79992187 69.06742187 79.30859375 69.74609375 C80.56999828 71.4269954 81.83332997 73.10645116 83.09765625 74.78515625 C86.70556869 79.58126628 90.29508034 84.38703934 93.8125 89.25 C97.23182727 93.96702377 100.69880602 98.64668515 104.1875 103.3125 C104.68677002 103.98249023 105.18604004 104.65248047 105.70043945 105.34277344 C107.99311086 108.40170285 110.31416411 111.41191351 112.77734375 114.3359375 C115 117 115 117 116.375 119.3125 C120.09069242 125.45768362 124.84814677 130.96591607 129.640625 136.296875 C131 138 131 138 132.3515625 140.29296875 C134.73865692 144.21300768 137.62517586 147.7036528 140.50390625 151.27148438 C142.78480865 154.16491397 144.27520268 156.3959575 145 160 C140.75035873 160.14513802 136.50135365 160.23402037 132.25 160.3125 C130.44015625 160.3753418 130.44015625 160.3753418 128.59375 160.43945312 C127.43359375 160.45556641 126.2734375 160.47167969 125.078125 160.48828125 C124.00981445 160.51446533 122.94150391 160.54064941 121.84082031 160.56762695 C119 160 119 160 116.76098633 157.65527344 C116.17986084 156.7790332 115.59873535 155.90279297 115 155 C114.25621094 154.01902344 113.51242187 153.03804687 112.74609375 152.02734375 C111.98425781 151.00769531 111.22242188 149.98804688 110.4375 148.9375 C109.67308594 147.91527344 108.90867187 146.89304687 108.12109375 145.83984375 C107.42113281 144.90269531 106.72117187 143.96554687 106 143 C105.41347656 142.25878906 104.82695312 141.51757812 104.22265625 140.75390625 C103 139 103 139 103 137 C102.01 136.67 101.02 136.34 100 136 C98.71875 134.2578125 98.71875 134.2578125 97.5 132.125 C95.89774429 129.34159426 94.30476475 127.22899166 92 125 C91 123.33333333 90 121.66666667 89 120 C86.07501031 115.91217038 82.97196618 111.95807386 79.875 108 C76.40617659 103.54455865 72.97467245 99.06140888 69.5625 94.5625 C69.01770996 93.85158203 68.47291992 93.14066406 67.91162109 92.40820312 C67.4058252 91.73853516 66.9000293 91.06886719 66.37890625 90.37890625 C65.9207251 89.7763501 65.46254395 89.17379395 64.99047852 88.55297852 C64 87 64 87 64 85 C63.01 84.67 62.02 84.34 61 84 C60.33333333 82 59.66666667 80 59 78 C58.01 77.67 57.02 77.34 56 77 C54.7109375 75.35546875 54.7109375 75.35546875 53.375 73.1875 C48.41154292 65.43209832 42.75779169 58.17782509 37 51 C32.37474653 45.08866265 27.75998198 39.18253917 23.5 33 C20.83857982 29.14187567 18.05184398 25.3964018 15.1875 21.6875 C14.56222412 20.87768677 14.56222412 20.87768677 13.92431641 20.05151367 C11.67258065 17.14298585 9.40801892 14.24483052 7.13671875 11.3515625 C6.67434814 10.75899658 6.21197754 10.16643066 5.7355957 9.5559082 C4.84376713 8.41315783 3.94790326 7.27354272 3.04760742 6.13745117 C0 2.22523943 0 2.22523943 0 0 Z " fill="#060606" transform="translate(244,117)"/>
<path d="M0 0 C0.66 0 1.32 0 2 0 C6 4 6 4 6.0625 6.75 C6.041875 7.8225 6.02125 8.895 6 10 C6.29714023 12.00569659 6.62061383 14.00822259 7 16 C5.25066712 13.37600067 3.80267425 10.80525467 2.375 8 C1.92898437 7.13375 1.48296875 6.2675 1.0234375 5.375 C0 3 0 3 0 0 Z " fill="#454444" transform="translate(167,254)"/>
<path d="M0 0 C0.53625 0.2475 1.0725 0.495 1.625 0.75 C-0.8912178 3.35608273 -3.42634359 5.64381685 -6.375 7.75 C-6.705 7.09 -7.035 6.43 -7.375 5.75 C-8.695 6.08 -10.015 6.41 -11.375 6.75 C-8.40130096 3.44588996 -4.65750725 -0.49026392 0 0 Z " fill="#494849" transform="translate(240.375,56.25)"/>
<path d="M0 0 C0.66 0.33 1.32 0.66 2 1 C2 1.66 2 2.32 2 3 C1.154375 3.37125 0.30875 3.7425 -0.5625 4.125 C-4.54683878 6.2982757 -7.66636184 8.95238405 -11 12 C-11.66 11.67 -12.32 11.34 -13 11 C-11.39801112 9.53927468 -9.79332884 8.08150284 -8.1875 6.625 C-7.29417969 5.81289062 -6.40085938 5.00078125 -5.48046875 4.1640625 C-3 2 -3 2 0 0 Z " fill="#6C6A6B" transform="translate(224,65)"/>
<path d="M0 0 C0.33 0.99 0.66 1.98 1 3 C-2.3 6.3 -5.6 9.6 -9 13 C-9.66 12.67 -10.32 12.34 -11 12 C-9.38405168 9.95880212 -7.7143618 7.95927063 -6 6 C-5.34 6 -4.68 6 -4 6 C-3.71125 5.38125 -3.4225 4.7625 -3.125 4.125 C-2 2 -2 2 0 0 Z " fill="#2D2D2D" transform="translate(358,156)"/>
<path d="M0 0 C0.99 0.33 1.98 0.66 3 1 C1.84499901 3.31000199 0.60570059 4.29527356 -1.375 5.9375 C-3.69609686 7.86845505 -5.89368369 9.83553386 -8 12 C-8.66 11.67 -9.32 11.34 -10 11 C-9.44570313 10.45730469 -8.89140625 9.91460937 -8.3203125 9.35546875 C-7.23363281 8.28232422 -7.23363281 8.28232422 -6.125 7.1875 C-5.40570313 6.47980469 -4.68640625 5.77210938 -3.9453125 5.04296875 C-1.84641063 2.95600806 -1.84641063 2.95600806 0 0 Z " fill="#303030" transform="translate(301,217)"/>
<path d="M0 0 C0.66 0.66 1.32 1.32 2 2 C0.38405168 4.04119788 -1.2856382 6.04072937 -3 8 C-3.66 8 -4.32 8 -5 8 C-6.63676257 9.9600281 -6.63676257 9.9600281 -8 12 C-8.66 11.67 -9.32 11.34 -10 11 C-6.83451967 7.11098131 -3.59634744 3.49359465 0 0 Z " fill="#D1D1D1" transform="translate(234,271)"/>
<path d="M0 0 C0.33 1.32 0.66 2.64 1 4 C-0.26257233 5.17560179 -1.53537084 6.34022865 -2.8125 7.5 C-3.52019531 8.1496875 -4.22789062 8.799375 -4.95703125 9.46875 C-7 11 -7 11 -10 11 C-6.7 7.37 -3.4 3.74 0 0 Z " fill="#262626" transform="translate(369,144)"/>
<path d="M0 0 C1.32 0.66 2.64 1.32 4 2 C4 2.66 4 3.32 4 4 C5.32 4.33 6.64 4.66 8 5 C7.67 5.66 7.34 6.32 7 7 C4.64828869 6.40138258 2.3140622 5.73075648 0 5 C-0.33 4.34 -0.66 3.68 -1 3 C-0.67 2.01 -0.34 1.02 0 0 Z " fill="#5F5C5C" transform="translate(409,66)"/>
<path d="M0 0 C0.33 0.99 0.66 1.98 1 3 C-0.3125 5.1875 -0.3125 5.1875 -2 7 C-2.66 7 -3.32 7 -4 7 C-4 7.66 -4 8.32 -4 9 C-5.32 9.33 -6.64 9.66 -8 10 C-7.04367001 8.70684939 -6.08486149 7.41553147 -5.125 6.125 C-4.59132813 5.40570313 -4.05765625 4.68640625 -3.5078125 3.9453125 C-2 2 -2 2 0 0 Z " fill="#DADADA" transform="translate(345,151)"/>
<path d="M0 0 C1.32 0.66 2.64 1.32 4 2 C1.36 3.65 -1.28 5.3 -4 7 C-4.33 6.01 -4.66 5.02 -5 4 C-4.01 3.34 -3.02 2.68 -2 2 C-1.34 2.33 -0.68 2.66 0 3 C0 2.01 0 1.02 0 0 Z " fill="#534F50" transform="translate(414,320)"/>
<path d="M0 0 C1.32 0 2.64 0 4 0 C2.60667426 3.36720387 1.0210714 4.9859524 -2 7 C-1.125 1.125 -1.125 1.125 0 0 Z " fill="#454344" transform="translate(433,302)"/>
<path d="M0 0 C0.66 0.33 1.32 0.66 2 1 C-0.31 3.64 -2.62 6.28 -5 9 C-5.33 8.34 -5.66 7.68 -6 7 C-4.02 4.69 -2.04 2.38 0 0 Z " fill="#5A5758" transform="translate(202,84)"/>
<path d="M0 0 C2 1 2 1 2 1 Z M-1 1 C-0.34 1.66 0.32 2.32 1 3 C-2.625 6 -2.625 6 -6 6 C-5.1875 4.0625 -5.1875 4.0625 -4 2 C-3.01 1.67 -2.02 1.34 -1 1 Z " fill="#2C282B" transform="translate(198,91)"/>
<path d="M0 0 C-0.33 1.32 -0.66 2.64 -1 4 C-4.12290635 3.51421457 -6.99580359 3.0013988 -10 2 C-6.38026598 0.68373308 -3.90432869 0 0 0 Z " fill="#59565A" transform="translate(277,42)"/>
<path d="M0 0 C0.66 0 1.32 0 2 0 C0.55746343 3.36591866 -1.33264727 5.51047079 -4 8 C-4.66 7.67 -5.32 7.34 -6 7 C-5.04882866 5.8274869 -4.08882991 4.66212985 -3.125 3.5 C-2.59132813 2.8503125 -2.05765625 2.200625 -1.5078125 1.53125 C-0.76144531 0.77328125 -0.76144531 0.77328125 0 0 Z " fill="#D8D8D8" transform="translate(383,110)"/>
</svg>
