<svg width="117" height="56" viewBox="0 0 117 56" fill="none" xmlns="http://www.w3.org/2000/svg">
<path d="M8.11596 37.356C6.85032 37.356 5.70728 37.1345 4.68685 36.6915C3.67433 36.2406 2.8398 35.5999 2.18324 34.7693C1.5346 33.9308 1.12326 32.9341 0.949236 31.7792L4.31902 31.2809C4.55633 32.2617 5.04677 33.0172 5.79034 33.5472C6.5339 34.0771 7.38031 34.3421 8.32954 34.3421C8.85953 34.3421 9.3737 34.2591 9.87205 34.093C10.3704 33.9269 10.7778 33.6816 11.0942 33.3573C11.4185 33.033 11.5807 32.6335 11.5807 32.1589C11.5807 31.9849 11.553 31.8188 11.4976 31.6606C11.4502 31.4944 11.3671 31.3402 11.2484 31.1978C11.1298 31.0554 10.9597 30.9209 10.7382 30.7944C10.5246 30.6678 10.2517 30.5531 9.91951 30.4503L5.48183 29.1451C5.1496 29.0502 4.762 28.9157 4.31902 28.7417C3.88396 28.5676 3.46075 28.3185 3.04942 27.9941C2.63808 27.6698 2.29399 27.2427 2.01713 26.7127C1.74818 26.1748 1.6137 25.4984 1.6137 24.6837C1.6137 23.5367 1.90243 22.5835 2.47988 21.8241C3.05733 21.0647 3.82858 20.4991 4.79364 20.1273C5.7587 19.7556 6.82659 19.5736 7.99731 19.5815C9.17594 19.5973 10.228 19.7991 11.1535 20.1867C12.079 20.5743 12.8542 21.1399 13.4791 21.8834C14.1041 22.6191 14.5549 23.5209 14.8318 24.5887L11.3434 25.182C11.2168 24.6283 10.9834 24.1616 10.6433 23.7819C10.3032 23.4022 9.89578 23.1135 9.42116 22.9157C8.95445 22.718 8.46402 22.6112 7.94985 22.5954C7.44359 22.5795 6.96502 22.6507 6.51413 22.8089C6.07115 22.9592 5.70728 23.1807 5.42251 23.4734C5.14565 23.7661 5.00722 24.1141 5.00722 24.5176C5.00722 24.8893 5.12192 25.1939 5.35132 25.4312C5.58071 25.6606 5.86944 25.8465 6.21749 25.9889C6.56555 26.1313 6.92151 26.2499 7.28538 26.3448L10.2517 27.1517C10.6947 27.2703 11.1852 27.4285 11.7231 27.6263C12.261 27.8161 12.7751 28.0851 13.2656 28.4331C13.7639 28.7733 14.1713 29.2242 14.4877 29.7858C14.812 30.3474 14.9742 31.0594 14.9742 31.9216C14.9742 32.8392 14.7804 33.6421 14.3928 34.3303C14.0131 35.0106 13.4989 35.5761 12.8503 36.027C12.2016 36.47 11.466 36.8022 10.6433 37.0237C9.82854 37.2452 8.9861 37.356 8.11596 37.356ZM17.5822 37V19.9138H20.4773L26.1253 31.2571L31.7732 19.9138H34.6684V37H31.6546V26.7957L26.6948 37H25.5558L20.596 26.7957V37H17.5822ZM37.9991 37V19.9138H49.1526V22.9276H41.2265V26.5821H47.7287V29.596H41.2265V33.9862H49.1526V37H37.9991Z" fill="white"/>
<path d="M58.611 37.356C56.9024 37.356 55.4271 36.9842 54.1852 36.2406C52.9512 35.497 51.998 34.4568 51.3256 33.12C50.6612 31.7832 50.3289 30.2288 50.3289 28.4569C50.3289 26.685 50.6612 25.1306 51.3256 23.7938C51.998 22.4569 52.9512 21.4167 54.1852 20.6731C55.4271 19.9296 56.9024 19.5578 58.611 19.5578C60.3196 19.5578 61.791 19.9296 63.025 20.6731C64.2669 21.4167 65.2201 22.4569 65.8845 23.7938C66.5569 25.1306 66.8931 26.685 66.8931 28.4569C66.8931 30.2288 66.5569 31.7832 65.8845 33.12C65.2201 34.4568 64.2669 35.497 63.025 36.2406C61.791 36.9842 60.3196 37.356 58.611 37.356ZM58.611 34.3184C59.6947 34.3342 60.5965 34.1009 61.3163 33.6183C62.0362 33.1358 62.5741 32.4516 62.93 31.5656C63.2939 30.6797 63.4759 29.6434 63.4759 28.4569C63.4759 27.2703 63.2939 26.242 62.93 25.3719C62.5741 24.5017 62.0362 23.8254 61.3163 23.3429C60.5965 22.8603 59.6947 22.6112 58.611 22.5954C57.5273 22.5795 56.6255 22.8129 55.9057 23.2954C55.1859 23.7779 54.644 24.4622 54.2801 25.3481C53.9242 26.2341 53.7462 27.2703 53.7462 28.4569C53.7462 29.6434 53.9242 30.6718 54.2801 31.5419C54.644 32.412 55.1859 33.0884 55.9057 33.5709C56.6255 34.0534 57.5273 34.3026 58.611 34.3184ZM77.9947 37V30.9486C77.9947 30.6559 77.9789 30.2842 77.9472 29.8333C77.9156 29.3745 77.8167 28.9157 77.6506 28.4569C77.4845 27.9981 77.2116 27.6144 76.8319 27.3059C76.4601 26.9974 75.9301 26.8432 75.2419 26.8432C74.9651 26.8432 74.6684 26.8867 74.352 26.9737C74.0356 27.0607 73.739 27.2308 73.4621 27.4839C73.1852 27.7291 72.9558 28.093 72.7739 28.5755C72.5999 29.0581 72.5129 29.6988 72.5129 30.4977L70.6619 29.6197C70.6619 28.6072 70.8675 27.6579 71.2789 26.772C71.6902 25.886 72.3072 25.1702 73.1299 24.6243C73.9605 24.0785 75.0046 23.8056 76.2624 23.8056C77.267 23.8056 78.0857 23.9757 78.7185 24.3158C79.3513 24.656 79.8418 25.0871 80.1898 25.6092C80.5458 26.1313 80.7989 26.6771 80.9492 27.2466C81.0995 27.8082 81.1905 28.3224 81.2221 28.7891C81.2537 29.2558 81.2696 29.596 81.2696 29.8095V37H77.9947ZM69.238 37V24.1853H72.1094V28.4331H72.5129V37H69.238ZM90.0732 37.356C88.7601 37.356 87.6012 37.0751 86.5966 36.5135C85.5999 35.944 84.8168 35.1648 84.2472 34.176C83.6856 33.1793 83.4048 32.0402 83.4048 30.7588C83.4048 29.3587 83.6817 28.1405 84.2354 27.1042C84.7891 26.068 85.5524 25.2651 86.5254 24.6955C87.4984 24.1181 88.6177 23.8294 89.8833 23.8294C91.2281 23.8294 92.3711 24.1458 93.3124 24.7786C94.2538 25.4114 94.9499 26.3013 95.4008 27.4483C95.8516 28.5953 96.0099 29.944 95.8754 31.4944H92.6836V30.3079C92.6836 29.0027 92.4739 28.0653 92.0547 27.4958C91.6434 26.9183 90.967 26.6296 90.0257 26.6296C88.9262 26.6296 88.1154 26.9658 87.5933 27.6382C87.0791 28.3026 86.822 29.2875 86.822 30.5927C86.822 31.7871 87.0791 32.7126 87.5933 33.3692C88.1154 34.0178 88.8787 34.3421 89.8833 34.3421C90.5162 34.3421 91.058 34.2037 91.5089 33.9269C91.9598 33.65 92.3039 33.2505 92.5412 32.7284L95.7686 33.6539C95.2861 34.8247 94.5227 35.7344 93.4786 36.383C92.4423 37.0316 91.3072 37.356 90.0732 37.356ZM85.8253 31.4944V29.0976H94.321V31.4944H85.8253Z" fill="#0EA59D"/>
</svg>
