<svg width="118" height="86" viewBox="0 0 118 86" fill="none" xmlns="http://www.w3.org/2000/svg">
<path d="M32.155 85.668C27.3563 85.668 22.9903 84.5667 19.057 82.364C15.1237 80.122 11.7213 77.0344 8.85001 73.101C6.01801 69.1677 3.83501 64.6247 2.30101 59.472C0.767015 54.28 1.44839e-05 48.734 1.44839e-05 42.834C1.44839e-05 36.934 0.767015 31.4077 2.30101 26.255C3.83501 21.063 6.01801 16.5004 8.85001 12.567C11.7213 8.6337 15.1237 5.5657 19.057 3.36303C22.9903 1.12103 27.3563 2.6226e-05 32.155 2.6226e-05C36.9537 2.6226e-05 41.3197 1.12103 45.253 3.36303C49.1863 5.5657 52.5493 8.6337 55.342 12.567C58.174 16.5004 60.357 21.063 61.891 26.255C63.4644 31.4077 64.251 36.934 64.251 42.834C64.251 48.734 63.4644 54.28 61.891 59.472C60.357 64.6247 58.174 69.1677 55.342 73.101C52.5493 77.0344 49.1863 80.122 45.253 82.364C41.3197 84.5667 36.9537 85.668 32.155 85.668ZM32.155 71.272C36.3637 71.272 39.8447 69.9347 42.598 67.26C45.3514 64.5854 47.3967 61.0847 48.734 56.758C50.0713 52.4314 50.74 47.79 50.74 42.834C50.74 37.6027 50.032 32.8434 48.616 28.556C47.2 24.2294 45.1154 20.7877 42.362 18.231C39.6087 15.6744 36.2063 14.396 32.155 14.396C28.969 14.396 26.196 15.1827 23.836 16.756C21.5153 18.29 19.588 20.3944 18.054 23.069C16.52 25.7437 15.3793 28.792 14.632 32.214C13.8847 35.5967 13.511 39.1367 13.511 42.834C13.511 47.7507 14.1797 52.392 15.517 56.758C16.8937 61.0847 18.9587 64.5854 21.712 67.26C24.5047 69.9347 27.9857 71.272 32.155 71.272ZM70.8862 84.134V71.272C73.4429 69.3447 76.4715 66.965 79.9722 64.133C83.4729 61.2617 87.0719 58.174 90.7692 54.87C94.4665 51.5267 97.8885 48.1834 101.035 44.84C104.182 41.4967 106.739 38.3107 108.705 35.282C110.711 32.2534 111.714 29.6574 111.714 27.494C111.714 25.0947 111.124 22.9117 109.944 20.945C108.764 18.939 107.191 17.346 105.224 16.166C103.297 14.986 101.134 14.396 98.7342 14.396C96.3349 14.396 94.1519 14.986 92.1852 16.166C90.2185 17.346 88.6452 18.939 87.4652 20.945C86.2852 22.9117 85.6952 25.0947 85.6952 27.494H71.2992C71.2992 22.302 72.5579 17.641 75.0752 13.511C77.5925 9.3417 80.9162 6.05736 85.0462 3.65803C89.2155 1.21936 93.7782 2.6226e-05 98.7342 2.6226e-05C103.769 2.6226e-05 108.351 1.23903 112.481 3.71703C116.611 6.15569 119.915 9.45969 122.393 13.629C124.871 17.7984 126.11 22.42 126.11 27.494C126.11 30.1687 125.619 32.863 124.635 35.577C123.652 38.291 122.275 41.0247 120.505 43.778C118.735 46.5314 116.651 49.324 114.251 52.156C111.852 54.9487 109.197 57.82 106.286 60.77C103.415 63.6807 100.386 66.67 97.2002 69.738H126.523V84.134H70.8862Z" fill="#CDD0D6" fill-opacity="0.24"/>
</svg>
