<svg width="120" height="86" viewBox="0 0 120 86" fill="none" xmlns="http://www.w3.org/2000/svg">
<path d="M32.155 85.786C27.3563 85.786 22.9903 84.6846 19.057 82.482C15.1237 80.24 11.7213 77.1523 8.85001 73.219C6.01801 69.2856 3.83501 64.7426 2.30101 59.59C0.767015 54.398 1.44839e-05 48.852 1.44839e-05 42.952C1.44839e-05 37.052 0.767015 31.5256 2.30101 26.3729C3.83501 21.181 6.01801 16.6183 8.85001 12.6849C11.7213 8.75162 15.1237 5.68362 19.057 3.48095C22.9903 1.23895 27.3563 0.117946 32.155 0.117946C36.9537 0.117946 41.3197 1.23895 45.253 3.48095C49.1863 5.68362 52.5493 8.75162 55.342 12.6849C58.174 16.6183 60.357 21.181 61.891 26.3729C63.4644 31.5256 64.251 37.052 64.251 42.952C64.251 48.852 63.4644 54.398 61.891 59.59C60.357 64.7426 58.174 69.2856 55.342 73.219C52.5493 77.1523 49.1863 80.24 45.253 82.482C41.3197 84.6846 36.9537 85.786 32.155 85.786ZM32.155 71.39C36.3637 71.39 39.8447 70.0526 42.598 67.378C45.3514 64.7033 47.3967 61.2026 48.734 56.876C50.0713 52.5493 50.74 47.908 50.74 42.952C50.74 37.7206 50.032 32.9613 48.616 28.674C47.2 24.3473 45.1154 20.9056 42.362 18.3489C39.6087 15.7923 36.2063 14.514 32.155 14.514C28.969 14.514 26.196 15.3006 23.836 16.8739C21.5153 18.4079 19.588 20.5123 18.054 23.1869C16.52 25.8616 15.3793 28.9099 14.632 32.3319C13.8847 35.7146 13.511 39.2546 13.511 42.952C13.511 47.8686 14.1797 52.51 15.517 56.876C16.8937 61.2026 18.9587 64.7033 21.712 67.378C24.5047 70.0526 27.9857 71.39 32.155 71.39ZM96.3152 85.786C91.3199 85.786 86.8162 84.606 82.8042 82.246C78.7922 79.886 75.6062 76.7196 73.2462 72.747C70.8862 68.735 69.7062 64.2903 69.7062 59.413H84.1022C84.1022 61.6156 84.6135 63.6216 85.6362 65.431C86.6982 67.2403 88.1535 68.6956 90.0022 69.797C91.8509 70.859 93.9552 71.39 96.3152 71.39C98.4785 71.39 100.485 70.859 102.333 69.797C104.221 68.6956 105.736 67.2403 106.876 65.431C108.017 63.6216 108.587 61.6156 108.587 59.413C108.587 56.5416 107.82 54.162 106.286 52.2739C104.752 50.3466 102.609 48.911 99.8552 47.967C97.1412 47.023 93.9749 46.5509 90.3562 46.5509V35.459C95.2335 35.459 99.0882 34.5346 101.92 32.686C104.792 30.8373 106.227 28.1233 106.227 24.5439C106.227 22.6953 105.755 21.004 104.811 19.47C103.867 17.9359 102.609 16.7166 101.035 15.8119C99.5012 14.868 97.8099 14.396 95.9612 14.396C94.0732 14.396 92.2442 14.868 90.4742 15.8119C88.7042 16.7166 87.2489 17.9359 86.1082 19.47C85.0069 21.004 84.4562 22.6953 84.4562 24.5439H70.0602C70.0602 21.1613 70.7485 17.9949 72.1252 15.0449C73.5019 12.0556 75.3899 9.43995 77.7892 7.19795C80.2279 4.95595 82.9812 3.20562 86.0492 1.94695C89.1565 0.648948 92.4015 -5.23329e-05 95.7842 -5.23329e-05C100.229 -5.23329e-05 104.339 1.10128 108.115 3.30395C111.891 5.50661 114.92 8.45662 117.201 12.154C119.483 15.8513 120.623 19.9813 120.623 24.5439C120.623 27.7299 119.876 30.857 118.381 33.925C116.887 36.993 114.763 39.1563 112.009 40.415C114.409 41.2803 116.415 42.7356 118.027 44.781C119.64 46.787 120.859 49.088 121.685 51.684C122.551 54.2406 122.983 56.817 122.983 59.413C122.983 64.251 121.764 68.676 119.325 72.688C116.887 76.6606 113.642 79.8466 109.59 82.246C105.578 84.606 101.153 85.786 96.3152 85.786Z" fill="#CDD0D6" fill-opacity="0.24"/>
</svg>
