<svg width="120" height="86" viewBox="0 0 120 86" fill="none" xmlns="http://www.w3.org/2000/svg">
<path d="M32.155 85.668C27.3563 85.668 22.9903 84.5667 19.057 82.364C15.1237 80.122 11.7213 77.0344 8.85001 73.101C6.01801 69.1677 3.83501 64.6247 2.30101 59.472C0.767015 54.28 1.44839e-05 48.734 1.44839e-05 42.834C1.44839e-05 36.934 0.767015 31.4077 2.30101 26.255C3.83501 21.063 6.01801 16.5004 8.85001 12.567C11.7213 8.6337 15.1237 5.5657 19.057 3.36303C22.9903 1.12103 27.3563 2.6226e-05 32.155 2.6226e-05C36.9537 2.6226e-05 41.3197 1.12103 45.253 3.36303C49.1863 5.5657 52.5493 8.6337 55.342 12.567C58.174 16.5004 60.357 21.063 61.891 26.255C63.4644 31.4077 64.251 36.934 64.251 42.834C64.251 48.734 63.4644 54.28 61.891 59.472C60.357 64.6247 58.174 69.1677 55.342 73.101C52.5493 77.0344 49.1863 80.122 45.253 82.364C41.3197 84.5667 36.9537 85.668 32.155 85.668ZM32.155 71.272C36.3637 71.272 39.8447 69.9347 42.598 67.26C45.3514 64.5854 47.3967 61.0847 48.734 56.758C50.0713 52.4314 50.74 47.79 50.74 42.834C50.74 37.6027 50.032 32.8434 48.616 28.556C47.2 24.2294 45.1154 20.7877 42.362 18.231C39.6087 15.6744 36.2063 14.396 32.155 14.396C28.969 14.396 26.196 15.1827 23.836 16.756C21.5153 18.29 19.588 20.3944 18.054 23.069C16.52 25.7437 15.3793 28.792 14.632 32.214C13.8847 35.5967 13.511 39.1367 13.511 42.834C13.511 47.7507 14.1797 52.392 15.517 56.758C16.8937 61.0847 18.9587 64.5854 21.712 67.26C24.5047 69.9347 27.9857 71.272 32.155 71.272ZM106.05 84.134V64.133H70.8862V49.678L102.687 1.53403H120.446V49.737H127.408V64.133H120.446V84.134H106.05ZM87.5832 49.678L106.05 49.737L105.991 21.181L87.5832 49.678Z" fill="#CDD0D6" fill-opacity="0.24"/>
</svg>
