<svg width="56" height="56" viewBox="0 0 56 56" fill="none" xmlns="http://www.w3.org/2000/svg">
<path d="M0 14C0 6.26801 6.26801 0 14 0H42C49.732 0 56 6.26801 56 14V42C56 49.732 49.732 56 42 56H14C6.26801 56 0 49.732 0 42V14Z" fill="url(#paint0_linear_1_2994)" fill-opacity="0.24"/>
<path d="M26.8333 39.3516C27.188 39.5564 27.5904 39.6642 28 39.6642C28.4096 39.6642 28.812 39.5564 29.1667 39.3516L37.3333 34.685C37.6877 34.4804 37.982 34.1862 38.1868 33.8319C38.3916 33.4777 38.4996 33.0758 38.5 32.6666V23.3333C38.4996 22.9241 38.3916 22.5222 38.1868 22.168C37.982 21.8137 37.6877 21.5196 37.3333 21.315L29.1667 16.6483C28.812 16.4435 28.4096 16.3357 28 16.3357C27.5904 16.3357 27.188 16.4435 26.8333 16.6483L18.6667 21.315C18.3123 21.5196 18.018 21.8137 17.8132 22.168C17.6084 22.5222 17.5004 22.9241 17.5 23.3333V32.6666C17.5004 33.0758 17.6084 33.4777 17.8132 33.8319C18.018 34.1862 18.3123 34.4804 18.6667 34.685L26.8333 39.3516Z" stroke="#0EA59D" stroke-width="2.33333" stroke-linecap="round" stroke-linejoin="round"/>
<path d="M28 39.6667V28" stroke="#0EA59D" stroke-width="2.33333" stroke-linecap="round" stroke-linejoin="round"/>
<path d="M17.8359 22.166L27.9976 27.9993L38.1593 22.166" stroke="#0EA59D" stroke-width="2.33333" stroke-linecap="round" stroke-linejoin="round"/>
<path d="M22.75 18.9824L33.25 24.9908" stroke="#0EA59D" stroke-width="2.33333" stroke-linecap="round" stroke-linejoin="round"/>
<defs>
<linearGradient id="paint0_linear_1_2994" x1="0" y1="0" x2="56" y2="56" gradientUnits="userSpaceOnUse">
<stop stop-color="#0EA59D" stop-opacity="0.21"/>
<stop offset="1" stop-color="#0C9088"/>
</linearGradient>
</defs>
</svg>
