<svg width="17" height="17" viewBox="0 0 17 17" fill="none" xmlns="http://www.w3.org/2000/svg">
<g clip-path="url(#clip0_1_3051)">
<path d="M14.1649 2.02368V3.37285C14.1649 9.86733 10.5407 12.817 6.06994 12.817L4.78712 12.8169C4.92979 10.7849 5.56222 9.55527 7.21393 8.09419C8.02613 7.37569 7.95773 6.96089 7.55729 7.19915C4.80256 8.83805 3.4344 11.0538 3.37372 14.5913L3.3716 14.8408H2.02244C2.02244 13.9215 2.10049 13.0866 2.25568 12.3234C2.10018 11.4504 2.02244 10.2655 2.02244 8.76951C2.02244 5.04389 5.04265 2.02368 8.76824 2.02368C10.1174 2.02368 11.4666 2.69826 14.1649 2.02368Z" fill="#19A947"/>
</g>
<defs>
<clipPath id="clip0_1_3051">
<rect width="16.19" height="16.19" fill="white"/>
</clipPath>
</defs>
</svg>
